<svg width="720" height="220" viewBox="0 0 720 220" fill="none" xmlns="http://www.w3.org/2000/svg">
  <defs>
    <linearGradient id="myxa-gradient" x1="38" y1="24" x2="174" y2="170" gradientUnits="userSpaceOnUse">
      <stop stop-color="#14B8A6"/>
      <stop offset="1" stop-color="#84CC16"/>
    </linearGradient>
  </defs>
  <g transform="translate(20 20)">
    <path
      d="M90 14L156 52V128L90 166L24 128V52L90 14Z"
      stroke="url(#myxa-gradient)"
      stroke-width="12"
      stroke-linejoin="round"
    />
    <path
      d="M90 50V138M90 76L56 96M90 76L124 96M90 110L56 130M90 110L124 130"
      stroke="url(#myxa-gradient)"
      stroke-width="12"
      stroke-linecap="round"
      stroke-linejoin="round"
    />
    <circle cx="90" cy="50" r="10" fill="#0F172A"/>
    <circle cx="90" cy="76" r="8" fill="#0F172A"/>
    <circle cx="56" cy="96" r="8" fill="#0F172A"/>
    <circle cx="124" cy="96" r="8" fill="#0F172A"/>
    <circle cx="90" cy="110" r="8" fill="#0F172A"/>
    <circle cx="56" cy="130" r="8" fill="#0F172A"/>
    <circle cx="124" cy="130" r="8" fill="#0F172A"/>
  </g>
  <text
    x="230"
    y="128"
    fill="#0F172A"
    font-family="'Trebuchet MS', 'Avenir Next', 'Segoe UI', sans-serif"
    font-size="104"
    font-weight="700"
    letter-spacing="3"
  >
    myxa
  </text>
  <text
    x="236"
    y="164"
    fill="#475569"
    font-family="'Trebuchet MS', 'Avenir Next', 'Segoe UI', sans-serif"
    font-size="22"
    letter-spacing="8"
  >
    PHP FRAMEWORK
  </text>
</svg>
